<svg width="233" height="37" viewBox="0 0 233 37" fill="none" xmlns="http://www.w3.org/2000/svg">
<path d="M55.624 18.788C57.28 19.1 58.624 19.712 59.656 20.624C60.712 21.536 61.24 22.904 61.24 24.728C61.24 27.392 60.28 29.276 58.36 30.38C56.464 31.46 53.8 32 50.368 32H42.34V7.052H49.396C52.9 7.052 55.576 7.556 57.424 8.564C59.272 9.548 60.196 11.168 60.196 13.424C60.196 14.888 59.752 16.076 58.864 16.988C58 17.876 56.92 18.476 55.624 18.788ZM48.244 11.228V17.024H50.44C52.936 17.024 54.184 16.016 54.184 14C54.184 12.992 53.848 12.284 53.176 11.876C52.504 11.444 51.436 11.228 49.972 11.228H48.244ZM50.404 27.716C51.964 27.716 53.14 27.488 53.932 27.032C54.748 26.552 55.156 25.676 55.156 24.404C55.156 22.1 53.716 20.948 50.836 20.948H48.244V27.716H50.404Z" fill="url(#paint0_linear_21_31)"/>
<path d="M72.7308 12.272C75.6588 12.272 77.9508 13.172 79.6068 14.972C81.2627 16.748 82.0908 19.244 82.0908 22.46C82.0908 24.5 81.7067 26.288 80.9388 27.824C80.1947 29.336 79.1148 30.512 77.6988 31.352C76.3068 32.192 74.6507 32.612 72.7308 32.612C69.8268 32.612 67.5348 31.724 65.8548 29.948C64.1988 28.148 63.3708 25.64 63.3708 22.424C63.3708 20.384 63.7427 18.608 64.4867 17.096C65.2547 15.56 66.3348 14.372 67.7268 13.532C69.1428 12.692 70.8108 12.272 72.7308 12.272ZM72.7308 16.448C71.5788 16.448 70.7147 16.94 70.1387 17.924C69.5628 18.884 69.2747 20.384 69.2747 22.424C69.2747 24.512 69.5508 26.036 70.1028 26.996C70.6787 27.956 71.5547 28.436 72.7308 28.436C73.8828 28.436 74.7467 27.956 75.3228 26.996C75.8988 26.012 76.1868 24.5 76.1868 22.46C76.1868 20.372 75.8988 18.848 75.3228 17.888C74.7708 16.928 73.9068 16.448 72.7308 16.448Z" fill="url(#paint1_linear_21_31)"/>
<path d="M90.5502 32.612C88.8942 32.612 87.5982 32.144 86.6622 31.208C85.7502 30.248 85.2942 28.892 85.2942 27.14V5.288L90.9822 4.676V26.924C90.9822 27.716 91.3062 28.112 91.9542 28.112C92.2902 28.112 92.6022 28.052 92.8902 27.932L94.0062 31.964C92.9742 32.396 91.8222 32.612 90.5502 32.612Z" fill="url(#paint2_linear_21_31)"/>
<path d="M102.894 12.272C104.262 12.272 105.546 12.476 106.746 12.884C107.946 13.292 109.002 13.868 109.914 14.612L107.826 17.816C106.266 16.832 104.694 16.34 103.11 16.34C102.366 16.34 101.79 16.472 101.382 16.736C100.998 16.976 100.806 17.324 100.806 17.78C100.806 18.14 100.89 18.44 101.058 18.68C101.25 18.896 101.622 19.124 102.174 19.364C102.726 19.604 103.578 19.892 104.73 20.228C106.722 20.804 108.198 21.56 109.158 22.496C110.142 23.408 110.634 24.68 110.634 26.312C110.634 27.608 110.262 28.736 109.518 29.696C108.774 30.632 107.754 31.352 106.458 31.856C105.162 32.36 103.722 32.612 102.138 32.612C100.53 32.612 99.0297 32.36 97.6377 31.856C96.2697 31.352 95.1057 30.656 94.1457 29.768L96.9177 26.672C98.5257 27.92 100.218 28.544 101.994 28.544C102.858 28.544 103.53 28.388 104.01 28.076C104.514 27.764 104.766 27.32 104.766 26.744C104.766 26.288 104.67 25.928 104.478 25.664C104.286 25.4 103.914 25.16 103.362 24.944C102.81 24.704 101.934 24.416 100.734 24.08C98.8377 23.528 97.4217 22.76 96.4857 21.776C95.5497 20.792 95.0817 19.568 95.0817 18.104C95.0817 17 95.3937 16.016 96.0177 15.152C96.6657 14.264 97.5777 13.568 98.7537 13.064C99.9537 12.536 101.334 12.272 102.894 12.272Z" fill="url(#paint3_linear_21_31)"/>
<path d="M121.844 12.272C124.772 12.272 127.064 13.172 128.72 14.972C130.376 16.748 131.204 19.244 131.204 22.46C131.204 24.5 130.82 26.288 130.052 27.824C129.308 29.336 128.228 30.512 126.812 31.352C125.42 32.192 123.764 32.612 121.844 32.612C118.94 32.612 116.648 31.724 114.968 29.948C113.312 28.148 112.484 25.64 112.484 22.424C112.484 20.384 112.856 18.608 113.6 17.096C114.368 15.56 115.448 14.372 116.84 13.532C118.256 12.692 119.924 12.272 121.844 12.272ZM121.844 16.448C120.692 16.448 119.828 16.94 119.252 17.924C118.676 18.884 118.388 20.384 118.388 22.424C118.388 24.512 118.664 26.036 119.216 26.996C119.792 27.956 120.668 28.436 121.844 28.436C122.996 28.436 123.86 27.956 124.436 26.996C125.012 26.012 125.3 24.5 125.3 22.46C125.3 20.372 125.012 18.848 124.436 17.888C123.884 16.928 123.02 16.448 121.844 16.448Z" fill="url(#paint4_linear_21_31)"/>
<path d="M151.266 6.44C153.138 6.44 154.758 6.704 156.126 7.232C157.518 7.76 158.778 8.564 159.906 9.644L157.17 12.848C155.466 11.456 153.642 10.76 151.698 10.76C150.666 10.76 149.85 10.976 149.25 11.408C148.65 11.816 148.35 12.416 148.35 13.208C148.35 13.76 148.482 14.216 148.746 14.576C149.01 14.912 149.478 15.236 150.15 15.548C150.822 15.86 151.83 16.232 153.174 16.664C155.718 17.48 157.59 18.488 158.79 19.688C159.99 20.864 160.59 22.544 160.59 24.728C160.59 26.288 160.194 27.668 159.402 28.868C158.61 30.044 157.47 30.968 155.982 31.64C154.494 32.288 152.73 32.612 150.69 32.612C148.65 32.612 146.838 32.288 145.254 31.64C143.694 30.992 142.35 30.128 141.222 29.048L144.21 25.772C145.17 26.588 146.154 27.2 147.162 27.608C148.194 28.016 149.31 28.22 150.51 28.22C151.734 28.22 152.694 27.956 153.39 27.428C154.11 26.876 154.47 26.12 154.47 25.16C154.47 24.536 154.338 24.02 154.074 23.612C153.81 23.18 153.354 22.796 152.706 22.46C152.058 22.124 151.122 21.764 149.898 21.38C147.138 20.54 145.17 19.508 143.994 18.284C142.842 17.06 142.266 15.512 142.266 13.64C142.266 12.2 142.65 10.94 143.418 9.86C144.186 8.756 145.254 7.916 146.622 7.34C147.99 6.74 149.538 6.44 151.266 6.44Z" fill="url(#paint5_linear_21_31)"/>
<path d="M178.924 26.456C178.924 27.176 179.02 27.704 179.212 28.04C179.428 28.376 179.764 28.628 180.22 28.796L179.032 32.504C177.856 32.408 176.896 32.156 176.152 31.748C175.408 31.316 174.832 30.644 174.424 29.732C173.176 31.652 171.256 32.612 168.664 32.612C166.768 32.612 165.256 32.06 164.128 30.956C163 29.852 162.436 28.412 162.436 26.636C162.436 24.548 163.204 22.952 164.74 21.848C166.276 20.744 168.496 20.192 171.4 20.192H173.344V19.364C173.344 18.236 173.104 17.468 172.624 17.06C172.144 16.628 171.304 16.412 170.104 16.412C169.48 16.412 168.724 16.508 167.836 16.7C166.948 16.868 166.036 17.108 165.1 17.42L163.804 13.676C165.004 13.22 166.228 12.872 167.476 12.632C168.748 12.392 169.924 12.272 171.004 12.272C173.74 12.272 175.744 12.836 177.016 13.964C178.288 15.092 178.924 16.784 178.924 19.04V26.456ZM170.32 28.544C171.616 28.544 172.624 27.932 173.344 26.708V23.324H171.94C170.644 23.324 169.672 23.552 169.024 24.008C168.4 24.464 168.088 25.172 168.088 26.132C168.088 26.9 168.28 27.5 168.664 27.932C169.072 28.34 169.624 28.544 170.32 28.544ZM173.848 1.94L176.08 6.188L167.584 9.608L166 6.692L173.848 1.94Z" fill="url(#paint6_linear_21_31)"/>
<path d="M194.291 12.272C196.571 12.272 198.323 13.172 199.547 14.972C200.771 16.748 201.383 19.244 201.383 22.46C201.383 24.428 201.071 26.18 200.447 27.716C199.847 29.252 198.971 30.452 197.819 31.316C196.691 32.18 195.347 32.612 193.787 32.612C192.755 32.612 191.807 32.396 190.943 31.964C190.103 31.532 189.383 30.932 188.783 30.164L188.495 32H183.455V5.288L189.143 4.676V14.828C189.719 14.036 190.451 13.412 191.339 12.956C192.251 12.5 193.235 12.272 194.291 12.272ZM192.131 28.472C194.363 28.472 195.479 26.468 195.479 22.46C195.479 20.18 195.215 18.608 194.687 17.744C194.159 16.88 193.391 16.448 192.383 16.448C191.111 16.448 190.031 17.192 189.143 18.68V26.636C189.503 27.212 189.935 27.668 190.439 28.004C190.967 28.316 191.531 28.472 192.131 28.472Z" fill="url(#paint7_linear_21_31)"/>
<path d="M210.623 12.884V32H204.935V12.884H210.623ZM207.743 2.804C208.727 2.804 209.531 3.116 210.155 3.74C210.803 4.34 211.127 5.108 211.127 6.044C211.127 6.98 210.803 7.76 210.155 8.384C209.531 8.984 208.727 9.284 207.743 9.284C206.759 9.284 205.955 8.984 205.331 8.384C204.707 7.76 204.395 6.98 204.395 6.044C204.395 5.108 204.707 4.34 205.331 3.74C205.955 3.116 206.759 2.804 207.743 2.804Z" fill="url(#paint8_linear_21_31)"/>
<path d="M223.375 12.272C226.303 12.272 228.595 13.172 230.251 14.972C231.907 16.748 232.735 19.244 232.735 22.46C232.735 24.5 232.351 26.288 231.583 27.824C230.839 29.336 229.759 30.512 228.343 31.352C226.951 32.192 225.295 32.612 223.375 32.612C220.471 32.612 218.179 31.724 216.499 29.948C214.843 28.148 214.015 25.64 214.015 22.424C214.015 20.384 214.387 18.608 215.131 17.096C215.899 15.56 216.979 14.372 218.371 13.532C219.787 12.692 221.455 12.272 223.375 12.272ZM223.375 16.448C222.223 16.448 221.359 16.94 220.783 17.924C220.207 18.884 219.919 20.384 219.919 22.424C219.919 24.512 220.195 26.036 220.747 26.996C221.323 27.956 222.199 28.436 223.375 28.436C224.527 28.436 225.391 27.956 225.967 26.996C226.543 26.012 226.831 24.5 226.831 22.46C226.831 20.372 226.543 18.848 225.967 17.888C225.415 16.928 224.551 16.448 223.375 16.448Z" fill="url(#paint9_linear_21_31)"/>
<path d="M4.18056 33.0225C2.85185 31.5425 1.82292 29.8852 1.09375 28.0506C0.364583 26.216 0 24.2658 0 22.2C0 17.575 1.70139 13.6438 5.10417 10.4062C8.50694 7.16875 12.6389 5.55 17.5 5.55H17.8889L14.7778 2.59L17.5 0L25.2778 7.4L17.5 14.8L14.7292 12.1638L17.7917 9.25H17.5C13.7407 9.25 10.5324 10.5142 7.875 13.0425C5.21759 15.5708 3.88889 18.6233 3.88889 22.2C3.88889 23.7725 4.15625 25.2525 4.69097 26.64C5.22569 28.0275 5.97917 29.2763 6.95139 30.3863L4.18056 33.0225ZM15.5556 32.375C15.5556 31.6658 15.3044 30.9644 14.8021 30.2706C14.2998 29.5769 13.7407 28.8523 13.125 28.0969C12.5093 27.3415 11.9502 26.5552 11.4479 25.7381C10.9456 24.921 10.6944 24.05 10.6944 23.125C10.6944 21.3367 11.3588 19.8104 12.6875 18.5463C14.0162 17.2821 15.6204 16.65 17.5 16.65C19.3796 16.65 20.9838 17.2821 22.3125 18.5463C23.6412 19.8104 24.3056 21.3367 24.3056 23.125C24.3056 24.05 24.0544 24.921 23.5521 25.7381C23.0498 26.5552 22.4907 27.3415 21.875 28.0969C21.2593 28.8523 20.7002 29.5769 20.1979 30.2706C19.6956 30.9644 19.4444 31.6658 19.4444 32.375H15.5556ZM15.5556 37V34.225H19.4444V37H15.5556ZM30.8194 33.0225L28.0486 30.3863C29.0208 29.2763 29.7743 28.0275 30.309 26.64C30.8438 25.2525 31.1111 23.7725 31.1111 22.2C31.1111 20.165 30.6655 18.2765 29.7743 16.5344C28.8831 14.7923 27.6597 13.3354 26.1042 12.1638L28.875 9.5275C30.7546 11.0692 32.2454 12.9269 33.3472 15.1006C34.4491 17.2744 35 19.6408 35 22.2C35 24.2658 34.6354 26.216 33.9062 28.0506C33.1771 29.8852 32.1481 31.5425 30.8194 33.0225Z" fill="url(#paint10_linear_21_31)"/>
<defs>
<linearGradient id="paint0_linear_21_31" x1="116" y1="0" x2="116" y2="53" gradientUnits="userSpaceOnUse">
<stop stop-color="#97C1EA"/>
<stop offset="1" stop-color="#0770D9"/>
</linearGradient>
<linearGradient id="paint1_linear_21_31" x1="116" y1="0" x2="116" y2="53" gradientUnits="userSpaceOnUse">
<stop stop-color="#97C1EA"/>
<stop offset="1" stop-color="#0770D9"/>
</linearGradient>
<linearGradient id="paint2_linear_21_31" x1="116" y1="0" x2="116" y2="53" gradientUnits="userSpaceOnUse">
<stop stop-color="#97C1EA"/>
<stop offset="1" stop-color="#0770D9"/>
</linearGradient>
<linearGradient id="paint3_linear_21_31" x1="116" y1="0" x2="116" y2="53" gradientUnits="userSpaceOnUse">
<stop stop-color="#97C1EA"/>
<stop offset="1" stop-color="#0770D9"/>
</linearGradient>
<linearGradient id="paint4_linear_21_31" x1="116" y1="0" x2="116" y2="53" gradientUnits="userSpaceOnUse">
<stop stop-color="#97C1EA"/>
<stop offset="1" stop-color="#0770D9"/>
</linearGradient>
<linearGradient id="paint5_linear_21_31" x1="116" y1="0" x2="116" y2="53" gradientUnits="userSpaceOnUse">
<stop stop-color="#97C1EA"/>
<stop offset="1" stop-color="#0770D9"/>
</linearGradient>
<linearGradient id="paint6_linear_21_31" x1="116" y1="0" x2="116" y2="53" gradientUnits="userSpaceOnUse">
<stop stop-color="#97C1EA"/>
<stop offset="1" stop-color="#0770D9"/>
</linearGradient>
<linearGradient id="paint7_linear_21_31" x1="116" y1="0" x2="116" y2="53" gradientUnits="userSpaceOnUse">
<stop stop-color="#97C1EA"/>
<stop offset="1" stop-color="#0770D9"/>
</linearGradient>
<linearGradient id="paint8_linear_21_31" x1="116" y1="0" x2="116" y2="53" gradientUnits="userSpaceOnUse">
<stop stop-color="#97C1EA"/>
<stop offset="1" stop-color="#0770D9"/>
</linearGradient>
<linearGradient id="paint9_linear_21_31" x1="116" y1="0" x2="116" y2="53" gradientUnits="userSpaceOnUse">
<stop stop-color="#97C1EA"/>
<stop offset="1" stop-color="#0770D9"/>
</linearGradient>
<linearGradient id="paint10_linear_21_31" x1="116" y1="0" x2="116" y2="53" gradientUnits="userSpaceOnUse">
<stop stop-color="#97C1EA"/>
<stop offset="1" stop-color="#0770D9"/>
</linearGradient>
</defs>
</svg>
